<?xml version="1.0" standalone="yes"?>

<svg version="1.1" viewBox="0.0 0.0 96.0 96.0" fill="none" stroke="none" stroke-linecap="square" stroke-miterlimit="10" xmlns="http://www.w3.org/2000/svg" xmlns:xlink="http://www.w3.org/1999/xlink"><clipPath id="p.0"><path d="m0 0l96.0 0l0 96.0l-96.0 0l0 -96.0z" clip-rule="nonzero"></path></clipPath><g clip-path="url(#p.0)"><path fill="#000000" fill-opacity="0.0" d="m0 0l96.0 0l0 96.0l-96.0 0z" fill-rule="evenodd"></path><path fill="#f1c232" d="m4.0600705 48.003l0 0c0 -24.269009 19.67392 -43.94293 43.94293 -43.94293l0 0c11.654392 0 22.831444 4.629688 31.072342 12.870586c8.240898 8.240898 12.87059 19.417953 12.87059 31.072342l0 0c0 24.269012 -19.67392 43.942932 -43.942932 43.942932l0 0c-24.269009 0 -43.94293 -19.67392 -43.94293 -43.942932z" fill-rule="evenodd"></path><path stroke="#737373" stroke-width="8.0" stroke-linejoin="round" stroke-linecap="butt" d="m4.0600705 48.003l0 0c0 -24.269009 19.67392 -43.94293 43.94293 -43.94293l0 0c11.654392 0 22.831444 4.629688 31.072342 12.870586c8.240898 8.240898 12.87059 19.417953 12.87059 31.072342l0 0c0 24.269012 -19.67392 43.942932 -43.942932 43.942932l0 0c-24.269009 0 -43.94293 -19.67392 -43.94293 -43.942932z" fill-rule="evenodd"></path><path fill="#000000" fill-opacity="0.0" d="m14.793714 76.82497l66.53222 0" fill-rule="evenodd"></path><path stroke="#737373" stroke-width="8.0" stroke-linejoin="round" stroke-linecap="butt" d="m14.793714 76.82497l66.53222 0" fill-rule="evenodd"></path><path fill="#000000" fill-opacity="0.0" d="m5.11811 0.80676013l85.76378 0l0 85.76378l-85.76378 0z" fill-rule="evenodd"></path><path fill="#666666" d="m62.532295 54.3474l0 -33.796875l8.5 0l0 46.078125l-9.203125 0l-28.421875 -33.79688l0 33.79688l-8.453125 0l0 -46.078125l9.21875 0l28.359375 33.796875z" fill-rule="nonzero"></path><path fill="#000000" fill-opacity="0.0" d="m27.020185 81.8236l41.95275 0l0 6.5511856l-41.95275 0z" fill-rule="evenodd"></path></g></svg>

