<?xml version="1.0" standalone="yes"?>

<svg version="1.1" viewBox="0.0 0.0 96.0 96.0" fill="none" stroke="none" stroke-linecap="square" stroke-miterlimit="10" xmlns="http://www.w3.org/2000/svg" xmlns:xlink="http://www.w3.org/1999/xlink"><clipPath id="p.0"><path d="m0 0l96.0 0l0 96.0l-96.0 0l0 -96.0z" clip-rule="nonzero"></path></clipPath><g clip-path="url(#p.0)"><path fill="#000000" fill-opacity="0.0" d="m0 0l96.0 0l0 96.0l-96.0 0z" fill-rule="evenodd"></path><path fill="#a2c4c9" d="m4.0600705 48.003l0 0c0 -24.269009 19.67392 -43.94293 43.94293 -43.94293l0 0c11.654392 0 22.831444 4.629688 31.072342 12.870586c8.240898 8.240898 12.87059 19.417953 12.87059 31.072342l0 0c0 24.269012 -19.67392 43.942932 -43.942932 43.942932l0 0c-24.269009 0 -43.94293 -19.67392 -43.94293 -43.942932z" fill-rule="evenodd"></path><path stroke="#737373" stroke-width="8.0" stroke-linejoin="round" stroke-linecap="butt" d="m4.0600705 48.003l0 0c0 -24.269009 19.67392 -43.94293 43.94293 -43.94293l0 0c11.654392 0 22.831444 4.629688 31.072342 12.870586c8.240898 8.240898 12.87059 19.417953 12.87059 31.072342l0 0c0 24.269012 -19.67392 43.942932 -43.942932 43.942932l0 0c-24.269009 0 -43.94293 -19.67392 -43.94293 -43.942932z" fill-rule="evenodd"></path><path fill="#000000" fill-opacity="0.0" d="m14.793714 76.82497l66.53222 0" fill-rule="evenodd"></path><path stroke="#737373" stroke-width="8.0" stroke-linejoin="round" stroke-linecap="butt" d="m14.793714 76.82497l66.53222 0" fill-rule="evenodd"></path><path fill="#000000" fill-opacity="0.0" d="m5.11811 0.80676013l85.76378 0l0 85.76378l-85.76378 0z" fill-rule="evenodd"></path><path fill="#666666" d="m71.039795 29.441153l0 3.531248l-8.515625 0l0 -3.531248q0 -0.4375 -0.375 -0.4375l-28.296875 0q-0.4375 0 -0.4375 0.4375l0 9.468748q0 0.453125 0.4375 0.453125l28.296875 0q3.640625 0 6.265625 2.59375q2.625 2.59375 2.625 6.296875l0 9.484375q0 3.703125 -2.625 6.296879q-2.625 2.59375 -6.265625 2.59375l-28.296875 0q-3.703125 0 -6.296875 -2.59375q-2.59375 -2.5937538 -2.59375 -6.296879l0 -3.53125l8.453125 0l0 3.53125q0 0.4375 0.4375 0.4375l28.296875 0q0.375 0 0.375 -0.4375l0 -9.484375q0 -0.4375 -0.375 -0.4375l-28.296875 0q-3.703125 0 -6.296875 -2.59375q-2.59375 -2.59375 -2.59375 -6.3125l0 -9.468748q0 -3.703125 2.59375 -6.296875q2.59375 -2.59375 6.296875 -2.59375l28.296875 0q3.640625 0 6.265625 2.59375q2.625 2.59375 2.625 6.296875z" fill-rule="nonzero"></path><path fill="#000000" fill-opacity="0.0" d="m27.020185 81.8236l41.95275 0l0 6.5511856l-41.95275 0z" fill-rule="evenodd"></path></g></svg>

