<!-- Generated by IcoMoon.io -->
<svg version="1.1" xmlns="http://www.w3.org/2000/svg" width="36" height="32" viewBox="0 0 36 32">
<title>home</title>
<path d="M30.5 19.544v8.956c0 0.831-0.669 1.5-1.5 1.5h-7.25c-0.413 0-0.75-0.337-0.75-0.75v-7c0-0.413-0.337-0.75-0.75-0.75h-4.5c-0.412 0-0.75 0.337-0.75 0.75v7c0 0.413-0.338 0.75-0.75 0.75h-7.25c-0.831 0-1.5-0.669-1.5-1.5v-8.956c0-0.225 0.1-0.438 0.275-0.581l11.75-9.675c0.275-0.225 0.675-0.225 0.956 0l11.75 9.675c0.169 0.144 0.269 0.356 0.269 0.581zM35.725 15.738l-5.225-4.306v-8.656c0-0.413-0.337-0.75-0.75-0.75h-3.5c-0.413 0-0.75 0.337-0.75 0.75v4.537l-5.594-4.606c-1.106-0.913-2.706-0.913-3.813 0l-15.819 13.031c-0.319 0.262-0.362 0.738-0.1 1.056l1.594 1.938c0.263 0.319 0.738 0.363 1.056 0.1l14.7-12.106c0.275-0.225 0.675-0.225 0.956 0l14.7 12.106c0.319 0.262 0.794 0.219 1.056-0.1l1.594-1.938c0.263-0.325 0.212-0.794-0.106-1.056z"></path>
</svg>
