<!-- Generated by IcoMoon.io -->
<svg version="1.1" xmlns="http://www.w3.org/2000/svg" width="36" height="32" viewBox="0 0 36 32">
<title>shopping-cart</title>
<path d="M33.008 18.832l2.955-13c0.213-0.939-0.5-1.832-1.463-1.832h-24.549l-0.573-2.801c-0.143-0.698-0.757-1.199-1.47-1.199h-6.408c-0.828 0-1.5 0.672-1.5 1.5v1c0 0.828 0.672 1.5 1.5 1.5h4.368l4.391 21.465c-1.050 0.604-1.758 1.737-1.758 3.035 0 1.933 1.567 3.5 3.5 3.5s3.5-1.567 3.5-3.5c0-0.98-0.403-1.865-1.052-2.5h13.103c-0.648 0.635-1.051 1.52-1.051 2.5 0 1.933 1.567 3.5 3.5 3.5s3.5-1.567 3.5-3.5c0-1.386-0.806-2.583-1.974-3.15l0.345-1.517c0.213-0.939-0.5-1.832-1.463-1.832h-16.776l-0.409-2h18.322c0.7 0 1.307-0.485 1.463-1.168z"></path>
</svg>
